<svg width="16" height="20" viewBox="0 0 16 20" fill="none" xmlns="http://www.w3.org/2000/svg">
<path d="M14.3391 0.557861C14.5919 0.557895 14.8359 0.650758 15.0249 0.818838C15.2138 0.986917 15.3345 1.21852 15.3641 1.46973L15.3713 1.59055V18.1136C15.371 18.3768 15.2703 18.63 15.0897 18.8213C14.9091 19.0127 14.6622 19.1279 14.3996 19.1433C14.1369 19.1588 13.8783 19.0733 13.6766 18.9043C13.4748 18.7354 13.3451 18.4958 13.3141 18.2344L13.3068 18.1136V12.9501H12.2746C12.0218 12.9501 11.7778 12.8572 11.5888 12.6892C11.3999 12.5211 11.2792 12.2895 11.2496 12.0383L11.2424 11.9174V5.72131C11.2424 3.43906 12.7907 0.557861 14.3391 0.557861ZM8.14566 0.557861C8.39849 0.557895 8.64252 0.650758 8.83145 0.818838C9.02039 0.986917 9.14109 1.21852 9.17067 1.46973L9.1779 1.59055V6.75399C9.17778 7.66986 8.87357 8.55973 8.31306 9.28386C7.75255 10.008 6.96749 10.5253 6.08119 10.7546V18.1136C6.0809 18.3768 5.98016 18.63 5.79955 18.8213C5.61894 19.0127 5.37209 19.1279 5.10945 19.1433C4.84681 19.1588 4.58819 19.0733 4.38643 18.9043C4.18468 18.7354 4.05502 18.4958 4.02395 18.2344L4.01672 18.1136V10.7546C3.16559 10.5345 2.40685 10.0485 1.85085 9.36723C1.29484 8.68598 0.970562 7.84505 0.925175 6.96673L0.920013 6.75399V1.59055C0.920305 1.32734 1.02105 1.07417 1.20166 0.882778C1.38227 0.691383 1.62911 0.576207 1.89175 0.560782C2.1544 0.545356 2.41302 0.630846 2.61477 0.799784C2.81653 0.968722 2.94619 1.20836 2.97726 1.46973L2.98448 1.59055V6.75399C2.98449 7.11654 3.07989 7.47269 3.26108 7.78665C3.44228 8.10062 3.70289 8.36134 4.01672 8.54261V1.59055C4.01701 1.32734 4.11775 1.07417 4.29836 0.882778C4.47897 0.691383 4.72582 0.576207 4.98846 0.560782C5.25111 0.545356 5.50973 0.630846 5.71148 0.799784C5.91323 0.968722 6.04289 1.20836 6.07397 1.46973L6.08119 1.59055L6.08222 8.54261C6.37028 8.37603 6.61383 8.14227 6.79212 7.86123C6.97041 7.58019 7.07816 7.2602 7.1062 6.92852L7.11343 6.75399V1.59055C7.11343 1.31666 7.22218 1.054 7.41576 0.860329C7.60934 0.666662 7.8719 0.557861 8.14566 0.557861Z" fill="black"/>
</svg>
