<svg width="23" height="22" viewBox="0 0 23 22" fill="none" xmlns="http://www.w3.org/2000/svg">
<path d="M21.8548 8.10994L15.266 7.15237L12.3206 1.18117C12.2402 1.01768 12.1078 0.885331 11.9443 0.804884C11.5343 0.602471 11.0361 0.771149 10.831 1.18117L7.88567 7.15237L1.29685 8.10994C1.11519 8.13589 0.949112 8.22152 0.821954 8.35128C0.668228 8.50928 0.583518 8.72185 0.586438 8.94228C0.589357 9.1627 0.679668 9.37296 0.837525 9.52683L5.60462 14.1746L4.47837 20.7374C4.45196 20.8901 4.46886 21.0471 4.52714 21.1907C4.58542 21.3342 4.68276 21.4586 4.80812 21.5496C4.93348 21.6407 5.08184 21.6948 5.23639 21.7058C5.39093 21.7168 5.54547 21.6843 5.68248 21.612L11.5758 18.5135L17.4692 21.612C17.6301 21.6976 17.8169 21.7261 17.996 21.695C18.4475 21.6171 18.7511 21.189 18.6733 20.7374L17.547 14.1746L22.3141 9.52683C22.4439 9.39967 22.5295 9.23359 22.5555 9.05194C22.6255 8.59781 22.3089 8.17741 21.8548 8.10994Z" fill="black"/>
</svg>
