<svg width="20" height="20" viewBox="0 0 20 20" fill="none" xmlns="http://www.w3.org/2000/svg">
<path d="M11.4742 5.83942V11.2052C11.4742 11.317 11.4383 11.4088 11.3665 11.4806C11.2946 11.5525 11.2028 11.5884 11.091 11.5884H7.2583C7.14651 11.5884 7.05469 11.5525 6.98282 11.4806C6.91096 11.4088 6.87503 11.317 6.87503 11.2052V10.4386C6.87503 10.3269 6.91096 10.235 6.98282 10.1632C7.05469 10.0913 7.14651 10.0554 7.2583 10.0554H9.94117V5.83942C9.94117 5.72763 9.97711 5.63581 10.049 5.56395C10.1208 5.49208 10.2127 5.45615 10.3244 5.45615H11.091C11.2028 5.45615 11.2946 5.49208 11.3665 5.56395C11.4383 5.63581 11.4742 5.72763 11.4742 5.83942ZM16.4567 10.0554C16.4567 8.87363 16.1653 7.78371 15.5824 6.78561C14.9995 5.78752 14.209 4.99703 13.2109 4.41414C12.2128 3.83125 11.1229 3.53981 9.94117 3.53981C8.75943 3.53981 7.66951 3.83125 6.67142 4.41414C5.67332 4.99703 4.88283 5.78752 4.29995 6.78561C3.71706 7.78371 3.42561 8.87363 3.42561 10.0554C3.42561 11.2371 3.71706 12.327 4.29995 13.3251C4.88283 14.3232 5.67332 15.1137 6.67142 15.6966C7.66951 16.2795 8.75943 16.5709 9.94117 16.5709C11.1229 16.5709 12.2128 16.2795 13.2109 15.6966C14.209 15.1137 14.9995 14.3232 15.5824 13.3251C16.1653 12.327 16.4567 11.2371 16.4567 10.0554ZM19.1396 10.0554C19.1396 11.7242 18.7284 13.2632 17.906 14.6726C17.0835 16.0819 15.9677 17.1977 14.5584 18.0202C13.149 18.8426 11.61 19.2538 9.94117 19.2538C8.27236 19.2538 6.7333 18.8426 5.32399 18.0202C3.91468 17.1977 2.79881 16.0819 1.97638 14.6726C1.15395 13.2632 0.742737 11.7242 0.742737 10.0554C0.742737 8.38656 1.15395 6.8475 1.97638 5.43819C2.79881 4.02888 3.91468 2.91301 5.32399 2.09058C6.7333 1.26815 8.27236 0.856934 9.94117 0.856934C11.61 0.856934 13.149 1.26815 14.5584 2.09058C15.9677 2.91301 17.0835 4.02888 17.906 5.43819C18.7284 6.8475 19.1396 8.38656 19.1396 10.0554Z" fill="black"/>
</svg>
